<svg xmlns="http://www.w3.org/2000/svg" viewBox="0 0 556.5 122.89"><title>npower-logo</title><path d="M232.29,0C257,0,276.84,17.24,276.84,43S257,86,232.29,86s-44.54-17.24-44.54-43S207.55,0,232.29,0Zm0,67.59c15,0,24.07-11.78,24.07-24.58s-9.05-24.58-24.07-24.58S208.23,30.21,208.23,43,217.27,67.59,232.29,67.59Z" style="fill:#006ca7"/><path d="M275.43,2.05h22.19L315.37,59.4h.35L332.27,2.05h22.2L372.21,59.4h.35L389.62,2.05h20.66L382.45,84H362.14L342.68,28h-.34L325.1,84H303.94Z" style="fill:#006ca7"/><path d="M429.35,50.18c1.36,12.12,10.58,19.46,22,19.46,10.25,0,16.9-4.78,22-11.09l14.67,11.09C478.51,81.41,466.38,86,453.41,86c-24.75,0-44.54-17.24-44.54-43S428.66,0,453.41,0c22.88,0,38.41,16,38.41,44.55v5.63Zm42-15.36c-.17-11.95-8-19.46-20.82-19.46-12.12,0-19.63,7.68-21.16,19.46Z" style="fill:#006ca7"/><path d="M504.1,2.05h20.48V15h.35c4.44-9.39,13.48-15,24.23-15a26.52,26.52,0,0,1,7.34,1.19V21a41.15,41.15,0,0,0-9.9-1.53c-19.28,0-22,16.21-22,20.65V84H504.1Z" style="fill:#006ca7"/><path d="M139.1,0c-11.43,0-22.18,4.44-28.16,14.34h-.34V2.05H91.15V30.53l-.06,0V56c0,.13,0,.25,0,.38s0,.24,0,.37V57h0a8.29,8.29,0,0,1-16.55,0h-.06v-30C72.87,12.36,64.53,0,44.89,0,31.24,0,23.56,7,19.8,15.19h-.34V2.05H0V84H20.49V39.25c0-10.92,5.29-20.82,18.77-20.82,14.34,0,15,15,15,24.07v13h.13c0,.67-.11,1.34-.11,2A28.32,28.32,0,0,0,82.62,85.85a28.65,28.65,0,0,0,8.53-1.31v38.35h20.48V73.57h.5C116.4,78.86,124.6,86,140,86c23.39,0,39.6-18.77,39.6-43S164.37,0,139.1,0ZM135,67.59c-15,0-24.07-11.78-24.07-24.58S120,18.43,135,18.43,159.07,30.21,159.07,43,150,67.59,135,67.59Z" style="fill:#006ca7"/></svg>